<svg width="92" height="18" viewBox="0 0 92 18" fill="none" xmlns="http://www.w3.org/2000/svg">
<path d="M50.0554 16.3097H48.2709V8.92799H41.4823V16.3097H39.7063V0.339417H41.4823V7.20513H48.2709V0.339417H50.0554V16.3097Z" fill="#FF5953"/>
<path fill-rule="evenodd" clip-rule="evenodd" d="M62.9023 12.936C63.3457 11.7691 63.5674 10.4034 63.5674 8.83886V7.83087C63.595 6.43615 63.3696 5.04803 62.9023 3.7337C62.4577 2.55999 61.824 1.664 61.0011 1.04571C60.1793 0.429071 59.1758 0.103388 58.1486 0.119989C57.1277 0.106562 56.1321 0.436823 55.3217 1.05767C54.4977 1.6817 53.8617 2.58282 53.4137 3.7611C52.9423 5.06518 52.7134 6.44445 52.7383 7.83087V8.98797C52.7242 10.3449 52.9614 11.6927 53.4377 12.9634C53.8914 14.1086 54.528 14.9897 55.3474 15.6069C57.0353 16.842 59.3287 16.842 61.0166 15.6069C61.8303 14.9931 62.4589 14.1028 62.9023 12.936ZM60.84 3.45086C61.4811 4.46343 61.8017 5.91656 61.8017 7.8103L61.8 8.99316C61.7806 10.8457 61.4571 12.2675 60.8297 13.2583C60.2023 14.2491 59.3143 14.7446 58.1657 14.7446C57.0251 14.7457 56.1297 14.2211 55.4794 13.1708C54.8291 12.1206 54.504 10.6777 54.504 8.84228V7.66973C54.5223 5.872 54.8537 4.4663 55.4983 3.45257C56.1428 2.43884 57.0263 1.932 58.1486 1.932C59.3017 1.932 60.1988 2.43829 60.84 3.45086Z" fill="#FF5953"/>
<path d="M68.5252 0.339417L72.9274 13.368L77.3297 0.339417H79.6286V16.3097H77.8577V10.0903L78.0292 3.37713L73.608 16.3097H72.2486L67.8309 3.4097L68.0023 10.0954V16.3148H66.2314V0.339417H68.5252Z" fill="#FF5953"/>
<path d="M90.3806 8.92799H84.552V14.5851H91.3303V16.308H82.776V0.339417H91.2377V2.0537H84.552V7.19656H90.3806V8.92799Z" fill="#FF5953"/>
<path d="M27.996 6.36342C27.1743 6.36342 26.5846 6.81027 26.2269 7.70399V11.3948C26.6074 12.2874 27.2017 12.7343 28.0097 12.7354C28.5896 12.7477 29.1273 12.4338 29.4017 11.9228C29.7343 11.3811 29.9006 10.5663 29.9006 9.47827C29.9006 8.48399 29.7366 7.71656 29.4086 7.17599C29.1282 6.66089 28.5823 6.34687 27.996 6.36342Z" fill="#FF5953"/>
<path fill-rule="evenodd" clip-rule="evenodd" d="M33.1286 7.48285H33.4354C34.1574 7.48285 34.8499 7.76965 35.3604 8.28021C35.8709 8.79071 36.1577 9.48316 36.1577 10.2051V13.5892C36.1536 15.0417 35.0084 16.2345 33.5571 16.2977V17.8749H31.8857V16.3046H4.15714V17.8749H2.48572V16.2977C1.0802 16.1759 0.000946638 14.9999 5.9262e-07 13.5892V10.2051C-0.00097597 8.71021 1.20511 7.49493 2.70001 7.48456V2.28345C2.70001 1.67755 2.9408 1.0965 3.36942 0.668213C3.798 0.23993 4.37924 -0.000426677 4.98514 5.68615e-07H30.8434C31.4493 -0.000426677 32.0306 0.23993 32.4592 0.668213C32.8878 1.0965 33.1286 1.67755 33.1286 2.28345V7.48285ZM14.556 13.8154H15.8023L15.8006 8.09833C15.7754 6.11658 14.9628 5.12573 13.3629 5.12573C12.8786 5.11408 12.4016 5.24524 11.9914 5.50287C11.6027 5.75592 11.2786 6.09644 11.0451 6.49719C10.6771 5.58289 9.98398 5.12573 8.9657 5.12573C8.10465 5.10181 7.29065 5.51782 6.8057 6.22974L6.77142 5.28345H5.59027V13.8154H6.83484V7.58575C7.13657 6.77087 7.6954 6.36346 8.51141 6.36346C9.54797 6.36346 10.0663 6.98346 10.0663 8.22345V13.8069H11.3177V8.14972C11.3403 7.66687 11.5279 7.20642 11.8491 6.84515C12.1449 6.52551 12.5641 6.34876 12.9994 6.36005C13.5634 6.36005 13.9611 6.51086 14.1994 6.81262C14.4371 7.1189 14.556 7.57605 14.556 8.18402V13.8154ZM23.5406 9.96686H18.6086C18.6257 10.808 18.8354 11.4874 19.2377 12.0051C19.5907 12.4983 20.1621 12.7881 20.7686 12.7817C21.1642 12.7944 21.5541 12.6843 21.8846 12.4663C22.2034 12.2424 22.4759 11.9589 22.6869 11.6314L23.4463 12.3171C22.836 13.4166 21.9217 13.9657 20.7034 13.9646C19.7654 13.9872 18.872 13.5644 18.2949 12.8246C17.6766 12.0646 17.3669 11.0486 17.3657 9.77655V9.5177C17.3512 8.74078 17.491 7.96875 17.7771 7.24628C18.0155 6.63171 18.4153 6.09277 18.9343 5.68628C19.3929 5.32275 19.9605 5.12415 20.5457 5.12231C21.4202 5.08795 22.2521 5.50067 22.7537 6.21771C23.2783 6.948 23.5406 7.99426 23.5406 9.35657V9.96686ZM30.3789 12.7903C30.8897 11.9994 31.1451 10.9514 31.1451 9.64624L31.1486 9.51428C31.1509 8.15198 30.8989 7.07941 30.3926 6.29657C29.8863 5.51367 29.192 5.12225 28.3097 5.12225C27.4724 5.09741 26.6833 5.51312 26.2303 6.21771V1.70227H24.984V13.8188H26.1292L26.1891 12.8331C26.6418 13.571 27.4567 14.0079 28.3217 13.9766C29.1823 13.9766 29.868 13.5811 30.3789 12.7903Z" fill="#FF5953"/>
<path d="M20.5457 6.32399C20.0471 6.3246 19.5788 6.56351 19.2857 6.96685C18.9429 7.39542 18.732 7.99599 18.6531 8.76856H22.3011V8.65885C22.2657 7.91713 22.0943 7.34227 21.7869 6.93427C21.5008 6.53665 21.0353 6.30778 20.5457 6.32399Z" fill="#FF5953"/>
</svg>
